<?xml version="1.0" encoding="utf-8"?>
<svg viewBox="0 0 500 670" xmlns="http://www.w3.org/2000/svg" xmlns:bx="https://boxy-svg.com">
  <defs>
    <filter id="filter-1" color-interpolation-filters="sRGB" x="-50%" y="-50%" width="200%" height="200%" bx:preset="inner-shadow 1 0 0 10 1 #004b24b3">
      <feOffset dx="0" dy="0"/>
      <feGaussianBlur stdDeviation="10"/>
      <feComposite operator="out" in="SourceGraphic"/>
      <feComponentTransfer result="choke">
        <feFuncA type="linear" slope="2"/>
      </feComponentTransfer>
      <feFlood flood-color="#004b24b3" result="color"/>
      <feComposite operator="in" in="color" in2="choke" result="shadow"/>
      <feComposite operator="over" in="shadow" in2="SourceGraphic"/>
    </filter>
    <filter id="drop-shadow-filter-1" color-interpolation-filters="sRGB" x="-50%" y="-50%" width="200%" height="200%" bx:preset="drop-shadow 1 0 0 9 1 #0000007e">
      <feGaussianBlur in="SourceAlpha" stdDeviation="9"/>
      <feOffset dx="0" dy="0"/>
      <feComponentTransfer result="offsetblur">
        <feFuncA id="spread-ctrl" type="linear" slope="2"/>
      </feComponentTransfer>
      <feFlood flood-color="#0000007e"/>
      <feComposite in2="offsetblur" operator="in"/>
      <feMerge>
        <feMergeNode/>
        <feMergeNode in="SourceGraphic"/>
      </feMerge>
    </filter>
    <filter id="inner-shadow-filter-0" color-interpolation-filters="sRGB" x="-50%" y="-50%" width="200%" height="200%" bx:preset="inner-shadow 1 0 0 10 1 #125100b3">
      <feOffset dx="0" dy="0"/>
      <feGaussianBlur stdDeviation="10"/>
      <feComposite operator="out" in="SourceGraphic"/>
      <feComponentTransfer result="choke">
        <feFuncA type="linear" slope="2"/>
      </feComponentTransfer>
      <feFlood flood-color="#125100b3" result="color"/>
      <feComposite operator="in" in="color" in2="choke" result="shadow"/>
      <feComposite operator="over" in="shadow" in2="SourceGraphic"/>
    </filter>
  </defs>
  <ellipse style="fill: rgb(28, 31, 28); stroke: rgb(255, 255, 255); stroke-width: 11px;" cx="249.092" cy="325.31" rx="219.495" ry="219.495"/>
  <path opacity="1.000000" stroke-linecap="round" stroke-linejoin="round" d="M 405.705 322.58 C 405.56 320.81 404.261 320.188 402.826 319.814 C 400.552 319.217 398.22 318.906 395.88 318.687 C 392.516 318.373 389.151 318.166 385.777 318.015 C 381.02 317.801 376.264 317.596 371.502 317.458 C 368.196 317.36 364.887 317.244 361.586 317.075 C 357.106 316.844 352.621 316.701 348.14 316.405 C 344.962 316.197 341.774 316.062 338.599 315.796 C 334.979 315.493 331.359 315.135 327.755 314.679 C 324.755 314.3 321.765 313.803 318.855 312.939 C 316.726 312.31 314.672 311.539 312.821 310.263 C 310.986 309 309.831 307.258 309.035 305.243 C 308.062 302.775 307.695 300.169 307.467 297.551 C 307.128 293.699 307.036 289.834 306.948 285.968 C 306.884 283.156 306.87 280.342 306.796 277.531 C 306.511 266.223 306.608 254.915 306.637 243.606 C 306.654 237.703 306.827 231.804 307.004 225.903 C 307.113 222.257 307.292 218.605 307.566 214.966 C 307.838 211.345 308.129 207.727 308.543 204.117 C 308.994 200.194 309.526 196.288 310.433 192.445 C 311.071 189.724 311.988 187.09 313.198 184.561 C 314.752 181.305 317.075 178.714 319.96 176.581 C 321.409 175.508 322.933 174.528 324.233 173.259 C 326.441 171.105 327.604 168.428 328.212 165.468 C 328.601 163.572 328.823 161.661 328.587 159.722 C 328.091 155.639 326.812 151.939 323.196 149.547 C 321.395 148.353 319.308 147.781 317.185 147.398 C 313.844 146.794 310.467 146.708 307.082 146.737 C 305.137 146.753 303.186 146.601 301.243 146.671 C 298.061 146.788 294.877 146.644 291.697 146.763 C 288.757 146.872 285.811 147.019 282.892 147.404 C 279.025 147.916 275.189 148.606 271.585 150.18 C 267.595 151.923 264.67 154.716 263.451 158.988 C 262.929 160.813 262.684 162.704 262.661 164.634 C 262.607 169.207 263.244 173.683 264.046 178.172 C 265.942 188.777 268.773 199.159 271.416 209.583 C 273.999 219.761 276.56 229.943 278.886 240.181 C 279.858 244.451 280.717 248.752 281.478 253.063 C 282.353 258.014 283.136 262.98 283.608 267.987 C 283.832 270.354 283.876 272.749 284.057 275.118 C 284.339 278.775 284.072 282.387 283.505 285.96 C 282.144 294.532 278.13 301.377 270.194 305.529 C 267.115 307.141 263.869 308.311 260.454 308.821 C 256.657 309.389 252.835 309.699 248.961 309.366 C 245.831 309.094 242.727 308.767 239.698 307.927 C 234.049 306.363 228.911 303.834 224.784 299.579 C 220.914 295.588 218.658 290.755 217.52 285.323 C 216.361 279.795 216.358 274.206 216.577 268.634 C 216.787 263.297 217.49 257.987 218.25 252.686 C 219.738 242.326 222.006 232.132 224.619 222.017 C 226.681 214.039 229.114 206.16 231.838 198.381 C 233.903 192.476 236.134 186.631 238.309 180.762 C 239.766 176.828 241.016 172.824 241.788 168.705 C 242.362 165.652 242.563 162.566 241.869 159.435 C 241.083 155.888 239.251 153.21 236.278 151.18 C 233.677 149.4 230.734 148.618 227.738 147.957 C 222.265 146.752 216.697 146.808 211.148 146.968 C 207.802 147.064 204.464 147.453 201.132 147.916 C 196.446 148.567 191.837 149.526 187.333 150.936 C 184.143 151.934 181.039 153.154 178.421 155.356 C 176.753 156.757 175.61 158.332 176.017 160.649 C 176.141 161.369 176.398 162.019 176.85 162.597 C 178.445 164.625 180.671 165.783 182.881 166.945 C 185.988 168.573 189.113 170.164 191.963 172.235 C 195.568 174.858 197.963 178.346 199.487 182.518 C 201.086 186.901 201.757 191.451 202.255 196.056 C 203.105 203.95 202.823 211.874 202.756 219.784 C 202.726 223.425 202.511 227.079 202.288 230.725 C 202.123 233.47 201.978 236.22 201.868 238.972 C 201.767 241.508 201.581 244.038 201.412 246.573 C 201.276 248.613 201.097 250.651 200.954 252.69 C 200.791 255.038 200.658 257.388 200.484 259.734 C 200.285 262.423 200.048 265.109 199.842 267.798 C 199.676 269.99 199.541 272.187 199.373 274.38 C 199.168 277.069 198.94 279.755 198.729 282.444 C 198.567 284.514 198.426 286.584 198.262 288.654 C 198.006 291.872 197.771 295.092 197.338 298.294 C 196.944 301.225 196.41 304.121 194.919 306.724 C 193.579 309.057 191.547 310.591 189.092 311.652 C 185.969 312.997 182.693 313.692 179.358 314.254 C 174.961 314.998 170.531 315.418 166.099 315.781 C 162.895 316.045 159.677 316.204 156.462 316.405 C 151.922 316.686 147.373 316.765 142.833 317.095 C 141.201 317.211 139.561 317.162 137.92 317.264 C 135.178 317.438 132.417 317.323 129.675 317.503 C 126.062 317.744 122.441 317.782 118.826 317.999 C 115.706 318.186 112.584 318.346 109.467 318.598 C 106.559 318.833 103.669 319.221 100.851 319.998 C 99.937 320.25 99.142 320.762 98.808 321.745 C 98.369 323.053 99.012 324.314 100.48 324.885 C 101.848 325.418 103.29 325.704 104.739 325.91 C 107.172 326.257 109.607 326.533 112.062 326.665 C 114.258 326.781 116.447 327.04 118.644 327.104 C 122.507 327.214 126.363 327.438 130.227 327.526 C 133.533 327.599 136.844 327.73 140.146 327.9 C 143.604 328.076 147.069 328.173 150.532 328.374 C 153.369 328.537 156.212 328.688 159.055 328.801 C 161.282 328.89 163.509 329.068 165.731 329.259 C 169.289 329.567 172.85 329.866 176.388 330.368 C 180.688 330.979 184.986 331.594 188.997 333.419 C 191.596 334.6 193.671 336.279 194.852 338.976 C 195.649 340.8 196.133 342.683 196.414 344.639 C 197.099 349.404 197.162 354.201 197.288 359.005 C 197.361 361.817 197.374 364.628 197.431 367.44 C 197.683 379.797 197.667 392.158 197.577 404.516 C 197.55 408.006 197.541 411.502 197.407 414.989 C 197.261 418.727 197.221 422.47 197.046 426.205 C 196.858 430.256 196.533 434.299 196.327 438.349 C 196.153 441.789 195.84 445.216 195.453 448.634 C 195.09 451.861 194.626 455.079 194.027 458.281 C 193.37 461.807 192.418 465.233 191.122 468.563 C 189.357 473.089 186.702 476.952 182.593 479.678 C 181.742 480.242 180.82 480.706 179.908 481.166 C 178.442 481.903 177.135 482.849 176.023 484.049 C 173.808 486.437 174.21 489.493 176.656 491.38 C 177.869 492.314 179.185 492.895 180.645 493.342 C 185.586 494.854 190.594 496.088 195.673 496.994 C 199.773 497.727 203.921 498.134 208.09 498.329 C 211.902 498.505 215.711 498.506 219.487 497.929 C 223.001 497.393 226.479 496.702 229.507 494.619 C 232.336 492.674 233.914 489.993 234.41 486.639 C 234.97 482.868 234.735 479.097 234.317 475.332 C 233.882 471.418 233.202 467.537 232.543 463.656 C 231.915 459.964 231.148 456.298 230.425 452.623 C 229.478 447.799 228.504 442.985 227.557 438.163 C 226.833 434.489 226.115 430.812 225.427 427.133 C 224.815 423.861 224.25 420.581 223.66 417.307 C 223.232 414.929 222.747 412.557 222.376 410.169 C 221.835 406.684 221.359 403.191 220.885 399.695 C 220.461 396.578 219.986 393.465 219.699 390.332 C 219.378 386.849 219.096 383.36 218.896 379.863 C 218.695 376.366 218.672 372.873 218.787 369.388 C 218.953 364.343 219.608 359.35 221.341 354.556 C 224.058 347.045 229.047 341.618 236.372 338.454 C 239.896 336.933 243.635 336.139 247.479 335.808 C 249.863 335.605 252.245 335.581 254.618 335.672 C 261.122 335.921 267.34 337.32 273.168 340.354 C 277.4 342.558 281.002 345.459 283.705 349.379 C 286.053 352.782 287.444 356.587 288.199 360.669 C 289.103 365.558 289.115 370.488 288.973 375.412 C 288.853 379.501 288.431 383.585 287.884 387.645 C 287.352 391.577 286.803 395.509 286.113 399.414 C 285.308 403.972 284.403 408.515 283.432 413.042 C 281.909 420.159 280.325 427.265 278.71 434.361 C 277.491 439.717 276.143 445.043 274.929 450.398 C 273.483 456.783 271.959 463.149 270.729 469.583 C 270.111 472.815 269.54 476.051 269.193 479.319 C 268.864 482.401 268.924 485.487 269.827 488.493 C 270.761 491.609 272.729 493.896 275.566 495.444 C 278.403 496.991 281.497 497.643 284.648 498.146 C 288.954 498.83 293.281 498.991 297.629 498.978 C 299.543 498.974 301.46 499.173 303.373 499.139 C 308.137 499.055 312.921 499.198 317.645 498.476 C 320.337 498.065 323.015 497.459 325.16 495.542 C 328.13 492.888 329.053 489.526 328.479 485.716 C 327.716 480.666 324.539 477.628 319.97 475.785 C 318.177 475.06 316.418 474.255 314.67 473.412 C 311.398 471.828 309.494 469.146 308.301 465.871 C 307.399 463.389 306.895 460.805 306.51 458.189 C 305.804 453.389 305.501 448.566 305.289 443.726 C 305.166 440.912 305.146 438.102 305.139 435.289 C 305.127 428.492 305.054 421.693 305.172 414.898 C 305.228 411.655 305.208 408.406 305.354 405.168 C 305.464 402.661 305.424 400.16 305.52 397.659 C 305.697 392.993 305.76 388.327 305.901 383.661 C 306.023 379.645 306.137 375.628 306.269 371.612 C 306.4 367.597 306.544 363.579 306.635 359.562 C 306.715 356.008 306.882 352.453 307.098 348.904 C 307.274 345.992 307.501 343.067 308.481 340.285 C 309.546 337.267 311.555 335.132 314.488 333.774 C 317.691 332.291 321.057 331.499 324.505 330.906 C 328.013 330.301 331.543 329.915 335.076 329.55 C 338.095 329.238 341.129 329.068 344.157 328.89 C 347.278 328.708 350.396 328.498 353.52 328.402 C 357.045 328.29 360.563 328.026 364.087 327.87 C 365.786 327.796 367.49 327.752 369.186 327.723 C 371.937 327.676 374.686 327.558 377.432 327.448 C 380.831 327.313 384.234 327.18 387.632 326.971 C 391.194 326.753 394.749 326.536 398.288 326.095 C 400.175 325.858 402.06 325.579 403.85 324.894 C 404.876 324.501 405.584 323.825 405.705 322.672" style="paint-order: stroke; fill: rgb(166, 203, 168); stroke: rgb(71, 255, 71); stroke-width: 3px; filter: url('#filter-1') url('#drop-shadow-filter-1');"/>
  <path stroke-linecap="round" stroke-linejoin="round" d="M 405.608 325.435 C 405.463 323.666 404.166 323.044 402.73 322.671 C 400.455 322.073 398.124 321.763 395.784 321.544 C 392.422 321.229 389.056 321.022 385.679 320.872 C 380.924 320.657 376.168 320.451 371.406 320.313 C 368.099 320.216 364.791 320.101 361.489 319.932 C 357.009 319.7 352.524 319.556 348.045 319.263 C 344.866 319.053 341.677 318.919 338.501 318.653 C 334.882 318.349 331.263 317.992 327.658 317.536 C 324.659 317.156 321.669 316.659 318.758 315.794 C 316.631 315.166 314.577 314.395 312.725 313.119 C 310.889 311.856 309.734 310.115 308.938 308.099 C 307.965 305.63 307.599 303.025 307.372 300.407 C 307.032 296.556 306.94 292.69 306.851 288.825 C 306.788 286.011 306.772 283.198 306.701 280.388 C 306.415 269.079 306.511 257.772 306.541 246.463 C 306.558 240.559 306.733 234.66 306.908 228.759 C 307.015 225.111 307.195 221.461 307.47 217.823 C 307.743 214.202 308.032 210.584 308.447 206.973 C 308.898 203.05 309.431 199.145 310.335 195.301 C 310.975 192.581 311.892 189.946 313.1 187.417 C 314.657 184.162 316.978 181.571 319.863 179.437 C 321.312 178.365 322.836 177.385 324.137 176.114 C 326.344 173.961 327.506 171.284 328.116 168.324 C 328.505 166.427 328.726 164.517 328.49 162.578 C 327.994 158.495 326.716 154.795 323.102 152.402 C 321.3 151.21 319.21 150.636 317.088 150.255 C 313.746 149.649 310.371 149.564 306.987 149.593 C 305.041 149.609 303.09 149.456 301.148 149.527 C 297.964 149.644 294.781 149.501 291.6 149.619 C 288.659 149.728 285.714 149.875 282.795 150.26 C 278.929 150.771 275.091 151.463 271.489 153.037 C 267.498 154.779 264.574 157.572 263.355 161.844 C 262.833 163.668 262.586 165.56 262.563 167.491 C 262.511 172.064 263.148 176.54 263.95 181.028 C 265.846 191.633 268.676 202.016 271.32 212.44 C 273.902 222.617 276.463 232.799 278.79 243.037 C 279.761 247.307 280.619 251.609 281.381 255.919 C 282.257 260.87 283.041 265.837 283.511 270.844 C 283.737 273.21 283.779 275.605 283.962 277.973 C 284.243 281.632 283.974 285.244 283.408 288.816 C 282.047 297.388 278.033 304.233 270.099 308.387 C 267.017 309.998 263.772 311.167 260.359 311.677 C 256.56 312.244 252.739 312.556 248.867 312.221 C 245.735 311.95 242.632 311.623 239.601 310.783 C 233.953 309.219 228.814 306.69 224.688 302.435 C 220.817 298.445 218.564 293.612 217.424 288.179 C 216.266 282.651 216.261 277.062 216.48 271.49 C 216.69 266.154 217.394 260.842 218.154 255.542 C 219.641 245.181 221.91 234.989 224.523 224.873 C 226.585 216.896 229.018 209.016 231.743 201.237 C 233.806 195.333 236.038 189.486 238.213 183.618 C 239.671 179.685 240.92 175.68 241.692 171.561 C 242.265 168.509 242.466 165.423 241.772 162.291 C 240.987 158.743 239.154 156.066 236.18 154.036 C 233.581 152.257 230.638 151.473 227.641 150.813 C 222.169 149.608 216.602 149.664 211.052 149.823 C 207.706 149.921 204.366 150.309 201.036 150.771 C 196.349 151.424 191.744 152.382 187.236 153.793 C 184.046 154.79 180.944 156.01 178.325 158.212 C 176.658 159.612 175.514 161.188 175.92 163.505 C 176.047 164.225 176.302 164.875 176.754 165.453 C 178.348 167.481 180.574 168.64 182.785 169.801 C 185.89 171.429 189.016 173.022 191.865 175.091 C 195.473 177.714 197.866 181.201 199.391 185.373 C 200.99 189.757 201.662 194.308 202.158 198.912 C 203.01 206.807 202.727 214.731 202.659 222.641 C 202.629 226.282 202.414 229.935 202.194 233.582 C 202.028 236.326 201.881 239.076 201.772 241.828 C 201.671 244.363 201.485 246.895 201.315 249.429 C 201.179 251.469 201 253.507 200.858 255.547 C 200.695 257.895 200.562 260.245 200.387 262.591 C 200.19 265.279 199.953 267.966 199.747 270.656 C 199.579 272.847 199.446 275.042 199.277 277.235 C 199.071 279.925 198.844 282.611 198.633 285.299 C 198.47 287.37 198.331 289.441 198.167 291.511 C 197.91 294.729 197.674 297.948 197.242 301.15 C 196.848 304.08 196.316 306.977 194.823 309.58 C 193.483 311.913 191.452 313.448 188.996 314.509 C 185.873 315.854 182.597 316.548 179.263 317.11 C 174.866 317.854 170.436 318.273 166.003 318.637 C 162.797 318.901 159.579 319.059 156.368 319.263 C 151.826 319.543 147.277 319.621 142.738 319.95 C 141.105 320.067 139.466 320.018 137.823 320.12 C 135.082 320.294 132.32 320.179 129.578 320.359 C 125.965 320.6 122.344 320.638 118.729 320.856 C 115.61 321.042 112.488 321.203 109.369 321.453 C 106.462 321.688 103.573 322.077 100.754 322.854 C 99.839 323.106 99.046 323.619 98.713 324.601 C 98.272 325.908 98.914 327.17 100.383 327.742 C 101.752 328.274 103.194 328.56 104.644 328.767 C 107.075 329.113 109.51 329.39 111.966 329.522 C 114.161 329.637 116.351 329.896 118.549 329.961 C 122.41 330.07 126.268 330.294 130.133 330.382 C 133.437 330.456 136.748 330.588 140.05 330.757 C 143.51 330.931 146.974 331.029 150.435 331.231 C 153.273 331.394 156.118 331.544 158.958 331.657 C 161.186 331.746 163.412 331.925 165.632 332.115 C 169.192 332.423 172.754 332.722 176.293 333.224 C 180.592 333.836 184.89 334.45 188.901 336.275 C 191.499 337.457 193.573 339.136 194.756 341.833 C 195.554 343.657 196.036 345.54 196.317 347.495 C 197.004 352.261 197.066 357.057 197.192 361.861 C 197.266 364.674 197.278 367.485 197.335 370.297 C 197.586 382.654 197.571 395.013 197.481 407.372 C 197.454 410.862 197.445 414.358 197.311 417.845 C 197.164 421.584 197.125 425.327 196.95 429.061 C 196.761 433.112 196.436 437.155 196.232 441.204 C 196.057 444.645 195.743 448.072 195.358 451.49 C 194.995 454.716 194.528 457.936 193.932 461.137 C 193.274 464.664 192.322 468.09 191.025 471.42 C 189.262 475.945 186.605 479.808 182.497 482.534 C 181.647 483.098 180.726 483.562 179.811 484.022 C 178.347 484.758 177.037 485.705 175.928 486.906 C 173.712 489.293 174.115 492.349 176.56 494.237 C 177.772 495.171 179.087 495.752 180.548 496.2 C 185.491 497.71 190.499 498.944 195.578 499.85 C 199.678 500.583 203.826 500.991 207.993 501.185 C 211.806 501.361 215.614 501.363 219.391 500.785 C 222.905 500.25 226.384 499.559 229.41 497.475 C 232.239 495.53 233.818 492.849 234.313 489.496 C 234.872 485.724 234.638 481.953 234.22 478.188 C 233.787 474.273 233.105 470.393 232.448 466.512 C 231.819 462.82 231.051 459.154 230.327 455.48 C 229.382 450.655 228.41 445.84 227.46 441.019 C 226.737 437.345 226.019 433.668 225.33 429.99 C 224.72 426.718 224.154 423.437 223.564 420.163 C 223.136 417.786 222.65 415.414 222.278 413.025 C 221.74 409.541 221.264 406.047 220.789 402.551 C 220.366 399.435 219.891 396.321 219.603 393.188 C 219.282 389.706 218.998 386.216 218.799 382.719 C 218.6 379.224 218.575 375.728 218.691 372.244 C 218.856 367.199 219.511 362.206 221.245 357.412 C 223.962 349.902 228.95 344.475 236.275 341.311 C 239.799 339.788 243.538 338.994 247.383 338.663 C 249.767 338.461 252.15 338.438 254.522 338.528 C 261.025 338.777 267.243 340.176 273.072 343.211 C 277.303 345.414 280.905 348.316 283.61 352.235 C 285.958 355.637 287.347 359.444 288.101 363.526 C 289.007 368.415 289.019 373.344 288.877 378.267 C 288.759 382.358 288.335 386.441 287.787 390.502 C 287.256 394.433 286.707 398.365 286.017 402.27 C 285.211 406.828 284.306 411.371 283.336 415.898 C 281.812 423.015 280.228 430.121 278.614 437.216 C 277.393 442.574 276.047 447.901 274.834 453.255 C 273.387 459.639 271.863 466.005 270.632 472.439 C 270.015 475.67 269.445 478.908 269.097 482.175 C 268.768 485.257 268.828 488.344 269.731 491.349 C 270.665 494.465 272.632 496.75 275.472 498.3 C 278.307 499.846 281.401 500.499 284.552 501.002 C 288.857 501.687 293.186 501.846 297.533 501.835 C 299.447 501.829 301.364 502.028 303.279 501.994 C 308.041 501.91 312.824 502.054 317.55 501.333 C 320.241 500.921 322.918 500.314 325.064 498.398 C 328.035 495.744 328.957 492.383 328.382 488.573 C 327.619 483.521 324.444 480.484 319.875 478.641 C 318.082 477.916 316.321 477.111 314.574 476.266 C 311.303 474.684 309.397 472.002 308.205 468.729 C 307.303 466.244 306.798 463.661 306.413 461.044 C 305.706 456.246 305.406 451.423 305.194 446.582 C 305.071 443.768 305.049 440.958 305.044 438.146 C 305.03 431.348 304.957 424.55 305.075 417.755 C 305.132 414.511 305.113 411.263 305.257 408.023 C 305.368 405.518 305.328 403.017 305.423 400.513 C 305.6 395.849 305.663 391.184 305.805 386.517 C 305.925 382.501 306.042 378.485 306.174 374.468 C 306.305 370.451 306.447 366.435 306.538 362.418 C 306.62 358.863 306.786 355.31 307.001 351.758 C 307.179 348.849 307.406 345.924 308.385 343.141 C 309.449 340.122 311.457 337.989 314.392 336.629 C 317.595 335.146 320.961 334.356 324.409 333.761 C 327.917 333.158 331.447 332.772 334.981 332.406 C 337.999 332.095 341.032 331.925 344.061 331.746 C 347.183 331.563 350.299 331.354 353.423 331.257 C 356.949 331.146 360.467 330.883 363.992 330.727 C 365.69 330.652 367.394 330.607 369.09 330.579 C 371.841 330.533 374.591 330.415 377.338 330.304 C 380.736 330.17 384.138 330.036 387.537 329.828 C 391.096 329.608 394.653 329.392 398.193 328.951 C 400.079 328.714 401.963 328.436 403.753 327.75 C 404.78 327.357 405.487 326.681 405.608 325.528" style="paint-order: stroke; stroke: rgb(71, 255, 71); stroke-width: 3px; fill: rgb(228, 255, 228); mix-blend-mode: soft-light; filter: url('#inner-shadow-filter-0');"/>
</svg>